<?xml version="1.0" encoding="UTF-8"?>
<svg id="Camada_1" data-name="Camada 1" xmlns="http://www.w3.org/2000/svg" viewBox="0 0 48 47.99">
  <path d="M10.02,30.21c.31,.3,.58,.79,.93,.85,.27,.04,.63-.45,1.19-.89-.58-.37-.94-.78-1.25-.74-.31,.03-.58,.5-.87,.78Z"/>
  <path d="M13.23,25.42s0,0,0,0h0s0,0,0,0c-.15-1.72-.6-2.09-2.73-2.15,.2-.34,.37-.65,.71-1.22-1.32,.57-2.56-.92-3.52,.4,.58,.76,1.38,1.41,1.62,2.23,.21,.7,.05,1.58,.87,1.87,.68,.24,1.47,.17,2.26,.24,.03,.68,.44,1.3,1.43,1.23,.79-.06,1.21-.58,1.12-1.39-.11-1.06-.83-1.3-1.76-1.21Z"/>
  <path d="M24.01,0C10.81,0,0,10.78,0,23.99s10.79,24,24,24c13.2,.01,24-10.79,24-23.99S37.22,0,24.01,0Zm14.89,10.08c-1.21,.26-1.51-.01-1.47-1.36,.53,.49,.97,.89,1.47,1.36Zm-6.01-3.21c1.08-.09,2.31,.59,2.79,1.54,.55,1.08,.08,1.87-1.43,1.89-.86-.02-1.76-.56-2.37-1.54-.58-.94-.1-1.8,1.01-1.89Zm-15,4.25c.33-.36,1.02-.4,1.57-.54,.38-.09,.85,0,1.15-.18,.88-.55,1.82-.92,2.73-.34,1.02,.66,1.68,1.66,1.82,2.63-.02,2.19-3.29,4.1-4.93,3.18-.19-.11-.41-.24-.52-.42-.63-.97-.9-2.17-2.01-2.86-.19-.12-.1-1.16,.19-1.47Zm4.28,8.08c-.39,.41-.77,.83-1.37,1.47-.59-.64-.97-1.05-1.35-1.47,.45-.35,.9-.98,1.35-.98s.91,.63,1.37,.98ZM12.3,8.23c.17,0,.33,.01,.5,.02h-.01c.29,.41,.74,.78,.82,1.22,.11,.69-.42,1.21-1.08,1.08-.42-.08-1.01-.64-1.03-1.02-.03-.41,.51-.86,.8-1.3Zm-.75,27.59c.29,.83,.65,1.82-.66,1.89-1.01,.06-.98-.81-.85-1.56-.55-.16-1.06-.27-1.54-.46-.47-.18-.95-.32-.83-1.08,.04-.27-.65-.95-.84-.89-.72,.22-.86-.23-1.04-.66-.55-1.3-1.07-2.61-1.64-4.01,1.29-.1,1.75-.78,1.77-1.81,.02-1.33-.76-2.22-2.5-2.72,.29-2.12,.58-4.27,.88-6.42,1.36,2.43,1.75,2.79,2.66,2.5-.11-1.03-.21-2.03-.32-3.04,.85,.19,1.45,.39,2.06,.41,.25,.01,.59-.32,.76-.58,.47-.74,.15-1.44-1.01-2.23h-.02c.41-1.56,1.34-2.5,2.86-2.74,1.34-.21,2.45,.33,3.19,1.46,.82,1.26,.74,2.54-.09,3.8-.17,.26-.22,.61-.3,.92-.2,.78-.38,1.57-.53,2.18,1.05,.27,2.31,.42,3.41,.92,1.2,.55,1.88,1.69,2.09,3.03,.39,2.41-.7,4.13-3.47,5.42,.25,.35,.5,.69,.74,1.04,1.19-.94,2.02-1.04,2.72-.33,.6,.61,.68,1.32,.26,2.06-.51,.88-1.29,.98-2.64,.39-1.18,2.49-2.1,2.95-5.12,2.51Zm6.45,4.23c-.43,.25-2.08-1.21-2.07-1.7,.02-.7,.81-1.33,1.67-1.32,.87,.01,1.66,.72,1.48,1.56-.12,.55-.59,1.17-1.08,1.46Zm.37,3.54c1.2-1.34,2.36-1.14,3,.62-1.08-.22-2-.41-3-.62Zm4.36-7.13s0,0,0,0h-.01s0,0,0,0c-1.88-.02-3.05-1.03-3-2.59,.05-1.65,1.41-2.94,3.08-2.92,1.66,.02,2.99,1.35,2.99,3.01,0,1.56-1.18,2.52-3.07,2.5Zm9.51-20.32c-.41,.56-.72,1.2-1.17,1.72-.45,.52-1.01,.96-1.56,1.38-.15,.11-.61,.1-.68,0-.64-.96-1.23-.48-1.81,.05h-.01c-1.41-.76-2.11-1.87-1.89-3.43,.2-1.45,1.1-2.3,2.5-2.7,.37-.11,.69-.41,1.01-.64,1.08-.79,2.35-.74,3.27,.16,1.01,.99,1.13,2.38,.34,3.46Zm3.07,7.37h0c-.54-.66-1.15-1.09-1.1-1.44,.06-.44,.65-.81,1.01-1.22,.38,.38,.99,.71,1.07,1.14,.07,.35-.5,.82-.98,1.52Zm1.57-5.78h.01c-1.46-.01-2.58-1.13-2.58-2.55,0-1.49,1.2-2.7,2.63-2.65,1.38,.05,2.58,1.3,2.53,2.65-.05,1.48-1.15,2.57-2.59,2.55Z"/>
</svg>